<svg xmlns="http://www.w3.org/2000/svg" width="258" height="48.425" viewBox="0 0 258 48.425">
  <g id="Group_821" data-name="Group 821" transform="translate(-138 -35.365)">
    <g id="SP_Logo" data-name="SP Logo" transform="translate(-239 -891.352)">
      <path id="SP_Pdrippy" d="M289.581,135.1h-8.508a13.029,13.029,0,0,0-12.9,11.3,14.078,14.078,0,0,0-.11,1.721v20.389h0c0,.275-.014.537-.014.812-.014.592-.028,1.184-.041,1.762-.041.592-.069,1.184-.138,1.762a17.215,17.215,0,0,1-.73,3.538,4.01,4.01,0,0,0,0,2.6,4.075,4.075,0,0,0,7.723-2.6,17.971,17.971,0,0,1-.73-3.538c-.069-.537-.1-1.074-.138-1.6h15.584a13.026,13.026,0,0,0,13.01-13.01V148.124A13.038,13.038,0,0,0,289.581,135.1Zm6.87,23.142a6.88,6.88,0,0,1-6.87,6.87H274.2V148.124a6.88,6.88,0,0,1,6.87-6.87h8.508a6.88,6.88,0,0,1,6.87,6.87Z" transform="translate(110.076 791.616)" fill="#f2dab2"/>
      <g id="SweetPea_VeryUndairy" transform="translate(424.141 928.74)">
        <path id="Path_1" data-name="Path 1" d="M161.6,282.93l4.359-1.677c.713,2.347,2.766,3.731,5.868,3.731,2.683,0,4.4-1.132,4.4-3.1,0-5.24-13.5-2.85-13.5-11.108,0-4.275,3.563-6.874,9.012-6.874,4.485,0,7.713,1.8,8.761,5.03l-4.359,1.677a4.3,4.3,0,0,0-4.485-2.892c-2.473,0-3.814,1.09-3.814,2.766,0,4.9,13.5,2.222,13.5,10.982,0,4.695-3.814,7.419-9.641,7.419C166.588,288.924,162.9,286.828,161.6,282.93Z" transform="translate(-161.6 -258.241)" fill="#f2dab2"/>
        <path id="Path_2" data-name="Path 2" d="M243.375,265.1l-6.413,23.976h-5.7l-5.323-18.695-5.24,18.695H215L208.5,265.1h4.946l4.611,19.324,5.2-19.324h5.407l5.2,19.156,4.527-19.156Z" transform="translate(-188.841 -258.938)" fill="#f2dab2"/>
        <path id="Path_3" data-name="Path 3" d="M302.8,284.649c3.6,0,5.575-1.3,6.665-3.814l3.94,2.515c-1.8,3.186-5.03,5.575-10.773,5.575-7.545,0-12.533-5.365-12.533-12.491A12.311,12.311,0,0,1,302.3,263.9a11.767,11.767,0,0,1,11.988,11.988c0,.838-.042,1.677-.084,2.138H294.878A7.791,7.791,0,0,0,302.8,284.649Zm6.791-10.311c-.629-4.066-3.4-6.539-7.084-6.539a7.453,7.453,0,0,0-7.545,6.539Z" transform="translate(-236.237 -258.241)" fill="#f2dab2"/>
        <path id="Path_4" data-name="Path 4" d="M364.4,284.649c3.6,0,5.575-1.3,6.665-3.814l3.94,2.515c-1.8,3.186-5.03,5.575-10.773,5.575-7.545,0-12.533-5.365-12.533-12.491A12.311,12.311,0,0,1,363.9,263.9a11.767,11.767,0,0,1,11.988,11.988c0,.838-.042,1.677-.084,2.138H356.478A7.732,7.732,0,0,0,364.4,284.649Zm6.749-10.311c-.629-4.066-3.4-6.539-7.084-6.539a7.453,7.453,0,0,0-7.545,6.539Z" transform="translate(-272.017 -258.241)" fill="#f2dab2"/>
        <path id="Path_5" data-name="Path 5" d="M524.3,284.649c3.6,0,5.575-1.3,6.665-3.814l3.94,2.515c-1.8,3.186-5.03,5.575-10.773,5.575-7.545,0-12.533-5.365-12.533-12.491A12.311,12.311,0,0,1,523.8,263.9a11.767,11.767,0,0,1,11.988,11.988c0,.838-.042,1.677-.084,2.138H516.378A7.732,7.732,0,0,0,524.3,284.649Zm6.749-10.311c-.629-4.066-3.4-6.539-7.084-6.539a7.453,7.453,0,0,0-7.545,6.539Z" transform="translate(-364.892 -258.241)" fill="#f2dab2"/>
        <path id="Path_6" data-name="Path 6" d="M441.485,255.807h-5.826a8.936,8.936,0,0,0-8.928,8.928v11.611H422.5c-2.85,0-4.443-1.635-4.443-4.653V260.711h6.874v-4.15h-6.665V250.4h-4.695v3.856c0,1.551-.671,2.305-2.222,2.305H409v4.15h4.276v11.443c0,5.156,2.85,8.383,8.258,8.383h5.2v12.323h4.234V280.538h10.479a8.936,8.936,0,0,0,8.928-8.928v-6.916A8.864,8.864,0,0,0,441.485,255.807Zm4.653,15.844a4.687,4.687,0,0,1-4.695,4.695H430.964V264.735a4.687,4.687,0,0,1,4.695-4.695h5.826a4.687,4.687,0,0,1,4.695,4.695v6.916Z" transform="translate(-305.298 -250.4)" fill="#f2dab2"/>
        <path id="Path_7" data-name="Path 7" d="M597.741,290.11h-4.234v-2.138H583.028a8.936,8.936,0,0,1-8.928-8.928v-6.916a8.936,8.936,0,0,1,8.928-8.928h5.826a8.935,8.935,0,0,1,8.928,8.928V290.11Zm-14.713-22.635a4.687,4.687,0,0,0-4.695,4.695v6.916a4.687,4.687,0,0,0,4.695,4.695h10.479V272.17a4.687,4.687,0,0,0-4.695-4.695Z" transform="translate(-401.194 -257.835)" fill="#f2dab2"/>
        <g id="Group_1" data-name="Group 1" transform="translate(81.653 37.096)">
          <path id="Path_8" data-name="Path 8" d="M359.963,347.786l-3.521-8.132a.454.454,0,0,1-.042-.252.549.549,0,0,1,.545-.5.6.6,0,0,1,.545.377l3.144,7.587,3.186-7.587a.668.668,0,0,1,.5-.377.51.51,0,0,1,.5.5.378.378,0,0,1-.042.21l-3.521,8.174a.63.63,0,0,1-.587.419h-.042a.629.629,0,0,1-.671-.419" transform="translate(-356.4 -338.9)" fill="#f2dab2"/>
          <path id="Path_9" data-name="Path 9" d="M381,347.693V339.6a.51.51,0,0,1,.5-.5h5.659a.461.461,0,0,1,0,.922h-5.156v3.1h4.569a.461.461,0,0,1,0,.922h-4.569v3.186h5.281a.461.461,0,0,1,0,.922h-5.743a.445.445,0,0,1-.545-.461" transform="translate(-370.688 -339.016)" fill="#f2dab2"/>
          <path id="Path_10" data-name="Path 10" d="M401.9,339.6a.51.51,0,0,1,.5-.5h3.4a3.562,3.562,0,0,1,2.6.922,2.5,2.5,0,0,1,.713,1.8v.042a2.616,2.616,0,0,1-2.431,2.641l2.263,2.934a.753.753,0,0,1,.168.377.51.51,0,0,1-.5.5.639.639,0,0,1-.5-.293l-2.557-3.353h-2.641v3.1a.5.5,0,1,1-1.006,0Zm3.856,4.15c1.383,0,2.347-.713,2.347-1.886v-.042c0-1.132-.88-1.8-2.347-1.8h-2.809v3.689h2.809Z" transform="translate(-382.828 -339.016)" fill="#f2dab2"/>
          <path id="Path_11" data-name="Path 11" d="M425.521,344.575l-3.4-4.737A.476.476,0,0,1,422,339.5a.52.52,0,0,1,.545-.5.639.639,0,0,1,.5.293l3.018,4.359,3.06-4.359a.582.582,0,0,1,.5-.293.51.51,0,0,1,.5.5,1,1,0,0,1-.126.377l-3.4,4.695v3.144a.51.51,0,0,1-.5.5.549.549,0,0,1-.545-.5v-3.144Z" transform="translate(-394.503 -338.958)" fill="#f2dab2"/>
        </g>
        <g id="Group_2" data-name="Group 2" transform="translate(130.78 37.012)">
          <path id="Path_12" data-name="Path 12" d="M473.6,344.107v-4.862a.5.5,0,1,1,1.006,0v4.778c0,1.97,1.048,3.06,2.808,3.06,1.677,0,2.766-1.006,2.766-3.018V339.2a.5.5,0,1,1,1.006,0v4.778c0,2.641-1.509,4.024-3.814,4.024-2.222.084-3.773-1.3-3.773-3.9" transform="translate(-473.6 -338.7)" fill="#f2dab2"/>
          <path id="Path_13" data-name="Path 13" d="M497.6,339.345a.51.51,0,0,1,.5-.5h.126a.582.582,0,0,1,.5.293l5.533,7.084V339.3a.484.484,0,0,1,.5-.5.51.51,0,0,1,.5.5v8.258a.476.476,0,0,1-.461.5h-.042a.792.792,0,0,1-.545-.293l-5.617-7.294v7.084a.484.484,0,0,1-.5.5.51.51,0,0,1-.5-.5Z" transform="translate(-487.54 -338.758)" fill="#f2dab2"/>
          <path id="Path_14" data-name="Path 14" d="M521,350.7a.51.51,0,0,1,.5-.5h2.725a.549.549,0,0,1,.545.5.555.555,0,0,1-.545.545H521.5a.549.549,0,0,1-.5-.545" transform="translate(-501.132 -345.38)" fill="#f2dab2"/>
          <path id="Path_15" data-name="Path 15" d="M534.9,339.5a.51.51,0,0,1,.5-.5h2.641a4.569,4.569,0,0,1,4.862,4.527v.042a4.577,4.577,0,0,1-4.862,4.569H535.4a.51.51,0,0,1-.5-.5Zm3.186,7.671a3.523,3.523,0,0,0,3.773-3.6v-.042a3.546,3.546,0,0,0-3.773-3.6h-2.138v7.21h2.138Z" transform="translate(-509.205 -338.874)" fill="#f2dab2"/>
          <path id="Path_16" data-name="Path 16" d="M556.526,347.251l3.689-8.09a.68.68,0,0,1,.671-.461h.042a.666.666,0,0,1,.629.461l3.689,8.09a.6.6,0,0,1,.084.251.484.484,0,0,1-.5.5.542.542,0,0,1-.5-.377l-.964-2.1h-5.03l-.964,2.138a.505.505,0,0,1-.5.335.465.465,0,0,1-.461-.461,2.044,2.044,0,0,0,.126-.293m6.455-2.641-2.1-4.653-2.1,4.653Z" transform="translate(-521.693 -338.7)" fill="#f2dab2"/>
          <path id="Path_17" data-name="Path 17" d="M582.7,339.4a.5.5,0,1,1,1.006,0v8.216a.5.5,0,1,1-1.006,0Z" transform="translate(-536.969 -338.816)" fill="#f2dab2"/>
          <path id="Path_18" data-name="Path 18" d="M591.5,339.5a.51.51,0,0,1,.5-.5h3.4a3.561,3.561,0,0,1,2.6.922,2.5,2.5,0,0,1,.713,1.8v.042a2.616,2.616,0,0,1-2.431,2.641l2.264,2.934a.753.753,0,0,1,.168.377.51.51,0,0,1-.5.5.639.639,0,0,1-.5-.293l-2.557-3.353h-2.6v3.1a.5.5,0,1,1-1.006,0V339.5Zm3.814,4.15c1.383,0,2.347-.713,2.347-1.886v-.042c0-1.132-.88-1.8-2.347-1.8h-2.767v3.689h2.767Z" transform="translate(-542.08 -338.874)" fill="#f2dab2"/>
          <path id="Path_19" data-name="Path 19" d="M615.121,344.475l-3.4-4.737a.476.476,0,0,1-.126-.335.52.52,0,0,1,.545-.5.64.64,0,0,1,.5.293l3.018,4.359,3.06-4.359a.581.581,0,0,1,.5-.293.51.51,0,0,1,.5.5,1,1,0,0,1-.126.377l-3.4,4.695v3.144a.5.5,0,0,1-1.006,0v-3.144Z" transform="translate(-553.755 -338.816)" fill="#f2dab2"/>
        </g>
      </g>
    </g>
    <text id="TM" transform="translate(390 49)" fill="#f2dab2" font-size="8" font-family="Helvetica" letter-spacing="-0.03em"><tspan x="-5.655" y="0">TM</tspan></text>
  </g>
</svg>
